<svg width="41" height="29" viewBox="0 0 41 29" fill="none" xmlns="http://www.w3.org/2000/svg">
<path d="M25.9146 22.6362C21.6857 22.6362 18.8257 19.5755 18.6101 14.9065C18.6101 14.7473 18.5488 14.5947 18.4395 14.4821C18.3303 14.3696 18.1821 14.3064 18.0277 14.3064H12.2202C12.0657 14.3064 11.9175 14.3696 11.8083 14.4821C11.6991 14.5947 11.6377 14.7473 11.6377 14.9065C11.8998 23.1343 17.5675 28.5775 25.9204 28.5775C34.2734 28.5775 39.8828 23.1643 40.1799 14.9305C40.1799 14.7713 40.1185 14.6187 40.0093 14.5061C39.9001 14.3936 39.7519 14.3304 39.5974 14.3304H33.7725C33.618 14.3304 33.4698 14.3936 33.3606 14.5061C33.2513 14.6187 33.19 14.7713 33.19 14.9305C32.957 19.5635 30.0969 22.6362 25.9146 22.6362Z" fill="#FA1D30"/>
<path d="M14.9661 5.97234C19.1209 5.97234 21.9588 8.9831 22.221 13.6317C22.2343 13.8165 22.3152 13.989 22.4473 14.1143C22.5794 14.2396 22.7526 14.3082 22.9319 14.3061H28.4911C28.5859 14.3078 28.68 14.2896 28.7678 14.2525C28.8555 14.2154 28.9351 14.1603 29.0016 14.0904C29.0681 14.0206 29.1201 13.9375 29.1546 13.8462C29.189 13.7549 29.2051 13.6574 29.202 13.5595C28.8523 5.45449 23.2058 0.0351257 14.9661 0.0351257C6.72648 0.0351257 0.980869 5.45449 0.660374 13.5595C0.658025 13.6572 0.674725 13.7543 0.709473 13.8452C0.744221 13.9361 0.79631 14.0189 0.86264 14.0885C0.928969 14.1582 1.00818 14.2134 1.09557 14.2507C1.18295 14.2881 1.27672 14.307 1.37129 14.3061H6.93626C7.11452 14.3066 7.28635 14.2374 7.41717 14.1122C7.54799 13.9871 7.6281 13.8154 7.64135 13.6317C7.89192 9.00117 10.7414 5.97234 14.9661 5.97234Z" fill="#FA1D30"/>
</svg>
