<svg width="228" height="53" viewBox="0 0 228 53" fill="none" xmlns="http://www.w3.org/2000/svg">
<path d="M31.9146 34.6362C27.6857 34.6362 24.8257 31.5755 24.6101 26.9065C24.6101 26.7473 24.5488 26.5947 24.4395 26.4821C24.3303 26.3696 24.1821 26.3064 24.0277 26.3064H18.2202C18.0657 26.3064 17.9175 26.3696 17.8083 26.4821C17.6991 26.5947 17.6377 26.7473 17.6377 26.9065C17.8998 35.1343 23.5675 40.5775 31.9204 40.5775C40.2734 40.5775 45.8828 35.1643 46.1799 26.9305C46.1799 26.7713 46.1185 26.6187 46.0093 26.5061C45.9001 26.3936 45.7519 26.3304 45.5974 26.3304H39.7725C39.618 26.3304 39.4698 26.3936 39.3606 26.5061C39.2513 26.6187 39.19 26.7713 39.19 26.9305C38.957 31.5635 36.0969 34.6362 31.9146 34.6362Z" fill="#FA1D30"/>
<path d="M20.9661 17.9723C25.1209 17.9723 27.9588 20.9831 28.221 25.6317C28.2343 25.8165 28.3152 25.989 28.4473 26.1143C28.5794 26.2396 28.7526 26.3082 28.9319 26.3061H34.4911C34.5859 26.3078 34.68 26.2896 34.7678 26.2525C34.8555 26.2154 34.9351 26.1603 35.0016 26.0904C35.0681 26.0206 35.1201 25.9375 35.1546 25.8462C35.189 25.7549 35.2051 25.6574 35.202 25.5595C34.8523 17.4545 29.2058 12.0351 20.9661 12.0351C12.7265 12.0351 6.98087 17.4545 6.66037 25.5595C6.65803 25.6572 6.67473 25.7543 6.70947 25.8452C6.74422 25.9361 6.79631 26.0189 6.86264 26.0885C6.92897 26.1582 7.00818 26.2134 7.09557 26.2507C7.18295 26.2881 7.27672 26.307 7.37129 26.3061H12.9363C13.1145 26.3066 13.2864 26.2374 13.4172 26.1122C13.548 25.9871 13.6281 25.8154 13.6414 25.6317C13.8919 21.0012 16.7414 17.9723 20.9661 17.9723Z" fill="#FA1D30"/>
<path d="M102.772 22.5886V38.7081C102.772 38.9235 102.686 39.13 102.533 39.2822C102.379 39.4345 102.171 39.52 101.954 39.52H96.7392C96.522 39.52 96.3138 39.4345 96.1603 39.2822C96.0068 39.13 95.9205 38.9235 95.9205 38.7081V23.6887C95.9205 20.1883 93.7018 17.8939 90.3264 17.8939C86.9509 17.8939 84.7856 20.1883 84.7856 23.6887V38.7081C84.7856 38.9235 84.6994 39.13 84.5458 39.2822C84.3923 39.4345 84.1841 39.52 83.9669 39.52H78.7643C78.6563 39.5208 78.5492 39.5004 78.4492 39.4599C78.3492 39.4194 78.2583 39.3598 78.1816 39.2843C78.105 39.2088 78.0441 39.1191 78.0026 39.0202C77.9611 38.9213 77.9397 38.8153 77.9397 38.7081V23.6887C77.9397 20.1883 75.727 17.8939 72.3515 17.8939H68.0328C67.7097 17.8939 67.3998 18.0208 67.1708 18.2468C66.9418 18.4728 66.8123 18.7796 66.8108 19.0999V38.7081C66.8108 38.8153 66.7894 38.9213 66.7479 39.0202C66.7064 39.1191 66.6456 39.2088 66.5689 39.2843C66.4923 39.3598 66.4013 39.4194 66.3013 39.4599C66.2013 39.5004 66.0942 39.5208 65.9862 39.52H60.7836C60.6756 39.5208 60.5685 39.5004 60.4685 39.4599C60.3685 39.4194 60.2775 39.3598 60.2009 39.2843C60.1242 39.2088 60.0634 39.1191 60.0219 39.0202C59.9804 38.9213 59.959 38.8153 59.959 38.7081V12.911C59.959 12.8039 59.9804 12.6978 60.0219 12.5989C60.0634 12.5 60.1242 12.4103 60.2009 12.3348C60.2775 12.2594 60.3685 12.1997 60.4685 12.1592C60.5685 12.1188 60.6756 12.0983 60.7836 12.0991H74.7897C76.2235 12.0511 77.6501 12.3196 78.9664 12.8853C80.2827 13.451 81.4558 14.2997 82.4008 15.3701C82.4771 15.4563 82.5711 15.5255 82.6764 15.5728C82.7818 15.6202 82.8962 15.6446 83.0118 15.6446C83.1275 15.6446 83.2419 15.6202 83.3473 15.5728C83.4526 15.5255 83.5466 15.4563 83.6229 15.3701C85.6043 13.211 88.4992 12.0756 91.7679 12.0756C98.3409 12.0991 102.772 16.2937 102.772 22.5886Z" fill="#3C3C3C"/>
<path d="M192.585 0H197.025C197.336 0 197.634 0.124102 197.854 0.345004C198.074 0.565906 198.197 0.865513 198.197 1.17792V37.8406C198.197 38.153 198.074 38.4526 197.854 38.6735C197.634 38.8944 197.336 39.0185 197.025 39.0185H192.796C192.493 39.0187 192.202 38.9011 191.983 38.6903C191.765 38.4795 191.636 38.1918 191.624 37.8877C191.616 37.6618 191.545 37.4428 191.417 37.2569C191.289 37.0709 191.111 36.9258 190.903 36.8389C190.696 36.752 190.468 36.7269 190.247 36.7667C190.025 36.8064 189.82 36.9093 189.655 37.0631C187.646 38.7346 185.097 39.6064 182.491 39.5132C175.226 39.5132 169.655 33.9593 169.655 25.655C169.655 17.2035 175.226 11.5554 182.491 11.5554H190.241C190.552 11.5554 190.85 11.4313 191.07 11.2104C191.289 10.9895 191.413 10.6898 191.413 10.3774V1.17203C191.414 0.860645 191.539 0.562549 191.758 0.342919C191.978 0.123289 192.275 -3.89225e-06 192.585 0V0ZM191.413 18.5286C191.413 18.2162 191.289 17.9166 191.07 17.6957C190.85 17.4748 190.552 17.3507 190.241 17.3507H183.914C179.556 17.4096 176.673 20.6901 176.673 25.5431C176.673 30.3961 179.602 33.6472 184.037 33.6472C188.472 33.6472 191.413 30.4079 191.413 25.5078V18.5286Z" fill="#3C3C3C"/>
<path d="M208.91 33.2401C209.054 33.0029 209.281 32.8287 209.546 32.7517C209.811 32.6747 210.095 32.7004 210.342 32.8237C212.415 33.8433 214.699 34.3507 217.005 34.3041C219.433 34.3041 221.089 33.2748 221.089 31.6556C221.089 30.0365 219.239 29.1517 216.615 28.4636L214.427 27.8853C209.998 26.7288 206.979 24.994 206.979 20.8132C206.979 15.5625 211.07 12.0756 217.291 12.0756C220.728 12.0756 223.724 12.7117 226.142 14.0475C226.274 14.1249 226.39 14.2284 226.482 14.3518C226.574 14.4752 226.641 14.6159 226.678 14.7658C226.716 14.9157 226.723 15.0716 226.7 15.2243C226.676 15.377 226.623 15.5235 226.543 15.655L224.939 18.1878C224.789 18.4115 224.568 18.5755 224.311 18.6516C224.055 18.7276 223.78 18.7108 223.535 18.6042C221.717 17.7475 219.733 17.3109 217.726 17.3262C215.343 17.3262 213.688 18.211 213.688 19.7376C213.688 21.2642 215.343 22.0507 217.629 22.6289L219.817 23.2708C224.291 24.4273 227.837 26.5091 227.837 31.1757C227.837 36.1834 223.461 39.52 216.896 39.52C213.344 39.52 210.142 38.7047 207.799 37.0393C207.571 36.868 207.415 36.6176 207.36 36.3367C207.305 36.0557 207.355 35.7642 207.501 35.5184L208.91 33.2401Z" fill="#3C3C3C"/>
<path d="M127.796 26.2965C127.796 31.2881 124.766 34.6159 120.251 34.6159C115.737 34.6159 112.707 31.2881 112.707 26.2965C112.707 21.3049 115.737 17.9772 120.251 17.9772C124.766 17.9772 127.796 21.3049 127.796 26.2965ZM105.519 26.2965C105.519 34.913 111.4 40.6177 120.251 40.6177C129.043 40.6177 134.984 34.913 134.984 26.2965C134.984 17.7395 129.043 12.0348 120.251 12.0348C111.4 12.0348 105.519 17.7395 105.519 26.2965Z" fill="#3C3C3C"/>
<path d="M160.225 26.2965C160.225 31.2881 157.195 34.6159 152.68 34.6159C148.166 34.6159 145.136 31.2881 145.136 26.2965C145.136 21.3049 148.166 17.9772 152.68 17.9772C157.195 17.9772 160.225 21.3049 160.225 26.2965ZM137.948 26.2965C137.948 34.913 143.829 40.6177 152.68 40.6177C161.472 40.6177 167.413 34.913 167.413 26.2965C167.413 17.7395 161.472 12.0348 152.68 12.0348C143.829 12.0348 137.948 17.7395 137.948 26.2965Z" fill="#3C3C3C"/>
<path d="M204.488 0H200.696C200.53 0 200.396 0.156142 200.396 0.348752V11.7268C200.396 11.9194 200.53 12.0755 200.696 12.0755H204.488C204.654 12.0755 204.788 11.9194 204.788 11.7268V0.348752C204.788 0.156142 204.654 0 204.488 0Z" fill="#3B3B3B"/>
</svg>
